# xmcd
#
# Track frame offsets:
#	150
#	17440
#	37942
#	54190
#	71251
#	90097
#	109662
#	129350
#	148925
#	158649
#	176872
#	197611
#	214474
#	232015
#	251261
#	267299
#
# Disc length: 3771 seconds
#
# Revision: 1
# Processed by: cddbd v1.4PL0 Copyright (c) Steve Scherf et al.
# Submitted via: audiograbber 1.82.01
#
DISCID=cf0eb910
DTITLE=Pino Daniele - Napule E´
DYEAR=2000
DGENRE=Italo musica
TTITLE0=Napule E
TTITLE1=Bambina
TTITLE2=Quando
TTITLE3=Un Giorno Che Non Va
TTITLE4=Che Male Cé
TTITLE5=Silcily
TTITLE6=Gente Distratta
TTITLE7=Che Dio Ti Benedica
TTITLE8=Stare Bene A Meta´
TTITLE9=´na Tazzulella é Caffee´
TTITLE10=Femmena
TTITLE11=Anima
TTITLE12=Je So´ Pazzo
TTITLE13=ó Sssaje Comme Fa ó Core
TTITLE14=Dubbi Non Ho
TTITLE15=Io Per Lei
EXTD=
EXTT0=
EXTT1=
EXTT2=
EXTT3=
EXTT4=
EXTT5=
EXTT6=
EXTT7=
EXTT8=
EXTT9=
EXTT10=
EXTT11=
EXTT12=
EXTT13=
EXTT14=
EXTT15=
PLAYORDER=
